<svg xmlns="http://www.w3.org/2000/svg" viewBox="0 0 100 100" fill="none">
  <!-- Toga (graduation cap) -->
  <path d="M50 18 L74 28 L50 38 L26 28 Z" fill="#1d9bf0" stroke="#0f1f5c" stroke-width="3" stroke-linejoin="round"/>
  <path d="M40 34 L40 44 Q50 50 60 44 L60 34 L50 38 Z" fill="#1d9bf0" stroke="#0f1f5c" stroke-width="3" stroke-linejoin="round"/>
  <!-- Tassel -->
  <path d="M74 28 L74 40" stroke="#0f1f5c" stroke-width="3" stroke-linecap="round"/>
  <circle cx="74" cy="42" r="2.5" fill="#0f1f5c"/>

  <!-- Owl head/ears -->
  <path d="M28 46 Q26 38 32 40 Q38 42 40 48 M72 46 Q74 38 68 40 Q62 42 60 48"
        stroke="#0f1f5c" stroke-width="3.5" stroke-linecap="round" stroke-linejoin="round" fill="none"/>
  <path d="M30 46 Q30 70 50 76 Q70 70 70 46"
        stroke="#0f1f5c" stroke-width="3.5" stroke-linejoin="round" fill="none"/>

  <!-- Eyes -->
  <circle cx="42" cy="56" r="8" stroke="#0f1f5c" stroke-width="3.5" fill="none"/>
  <circle cx="58" cy="56" r="8" stroke="#0f1f5c" stroke-width="3.5" fill="none"/>
  <circle cx="42" cy="56" r="2.6" fill="#1d9bf0"/>
  <circle cx="58" cy="56" r="2.6" fill="#1d9bf0"/>

  <!-- Beak -->
  <path d="M50 62 L46 67 L50 69 L54 67 Z" fill="#0f1f5c"/>

  <!-- Perch line -->
  <path d="M18 78 H82" stroke="#0f1f5c" stroke-width="3.5" stroke-linecap="round"/>
</svg>
